<svg width="36" height="36" viewBox="0 0 36 36" fill="none" xmlns="http://www.w3.org/2000/svg">
<path fill-rule="evenodd" clip-rule="evenodd" d="M30.8958 16.0218C31.6317 15.8636 31.9053 15.9657 31.9651 15.9945C31.9897 16.0458 32.0456 16.2142 32.0068 16.6113C31.9507 17.1879 31.7085 18.0038 31.2143 19.0251C30.2332 21.0526 28.4237 23.5526 25.9882 25.9882C23.5526 28.4237 21.0527 30.2332 19.0251 31.2143C18.0038 31.7085 17.1879 31.9506 16.6113 32.0068C16.2143 32.0456 16.0459 31.9896 15.9945 31.9651C15.9657 31.9053 15.8636 31.6317 16.0218 30.8958C16.2135 30.0045 16.7241 28.8048 17.5865 27.4014C18.6313 25.7014 20.1248 23.812 21.9684 21.9683C23.812 20.1248 25.7014 18.6312 27.4014 17.5864C28.8048 16.7241 30.0045 16.2135 30.8958 16.0218ZM1.67658 22.3669L13.6331 34.3234C14.5678 35.2581 15.8356 35.4316 16.9347 35.3244C18.0487 35.2158 19.2623 34.8026 20.4769 34.2149C22.921 33.0322 25.7182 30.9722 28.3452 28.3452C30.9722 25.7182 33.0322 22.921 34.2149 20.4769C34.8026 19.2623 35.2158 18.0487 35.3244 16.9347C35.4316 15.8356 35.2581 14.5678 34.3234 13.6331L22.3669 1.67656C21.2106 0.520233 19.5637 0.521441 18.2384 0.806467C16.8401 1.10719 15.2778 1.82016 13.6997 2.79001C11.7482 3.9893 9.65675 5.65294 7.65483 7.65483C5.65295 9.65667 3.98931 11.7482 2.79002 13.6997C1.82017 15.2778 1.10721 16.8401 0.806483 18.2384C0.52145 19.5637 0.520242 21.2106 1.67658 22.3669Z" fill="#0D141C"/>
</svg>
